# xmcd
#
# Track frame offsets:
#	150
#	14268
#	34756
#	59121
#	80142
#	94190
#	113485
#	133003
#	145954
#	169990
#	191155
#
# Disc length: 2744 seconds
#
# Revision: 1
# Processed by: cddbd v1.5.2PL0 Copyright (c) Steve Scherf et al.
# Submitted via: audiograbber 1.83.01
#
DISCID=9f0ab60b
DTITLE=Gogue - Some Said It Thundered
DYEAR=2005
DGENRE=
TTITLE0=Don't Go Away
TTITLE1=Dismal State Of Mind
TTITLE2=Someone Said It Thundered
TTITLE3=If I Should Die
TTITLE4=Goodbye Mr McKenzie
TTITLE5=September
TTITLE6=Seven Horses Deep
TTITLE7=If
TTITLE8=Devil On My Shoulder
TTITLE9=That Other Woman
TTITLE10=Waiting To Die
EXTD=
EXTT0=
EXTT1=
EXTT2=
EXTT3=
EXTT4=
EXTT5=
EXTT6=
EXTT7=
EXTT8=
EXTT9=
EXTT10=
PLAYORDER=
